<?xml version="1.0" encoding="UTF-8" standalone="no"?>
<svg xmlns:rdf="http://www.w3.org/1999/02/22-rdf-syntax-ns#" xmlns="http://www.w3.org/2000/svg" xml:space="preserve" height="460" width="460" version="1.1" xmlns:cc="http://creativecommons.org/ns#" xmlns:dc="http://purl.org/dc/elements/1.1/" viewBox="0 0 460 460"><path d="m230 0.71552c-127.02 0-229.28 102.26-229.28 229.28-0.00955 127.02 102.26 229.28 229.28 229.28s229.28-102.26 229.28-229.28-102.26-229.28-229.28-229.28zm-64.55 162.8c0.7471 0 1.4942 0.038 2.2286 0.0634h0.0253c27.263 0.86107 50.55 17.399 61.174 40.901 10.915-24.148 35.202-40.964 63.428-40.964 0.3672 0 0.73442 0.0506 1.1016 0.0506h111.15l-45.434 32.923 5.0144-0.0253h26.25l-29.086 28.073c0.35456 2.8111 0.58249 5.6603 0.58249 8.5727 0 20.957-9.2818 39.736-23.945 52.5l0.0127 0.0127-0.39255 0.3039c-1.5069 1.2916-3.077 2.5199-4.6852 3.6849l-40.571 31.847v-13.043l-63.428 44.32-63.428-44.32v13.043l-40.571-31.847c-1.6208-1.165-3.191-2.3933-4.7106-3.6975l-0.37987-0.29124 0.0128-0.0127c-14.651-12.764-23.933-31.543-23.933-52.5 0-3.5836 0.26592-7.1165 0.78509-10.548l-27.035-26.085h26.25l5.0144 0.0128-45.431-32.91h107.78c0.73444-0.0253 1.4689-0.0634 2.216-0.0634zm126.86 45.054c-13.562 0-24.553 10.979-24.553 24.54 0 13.549 10.991 24.54 24.553 24.54 13.549 0 24.54-10.991 24.54-24.54 0-13.562-10.991-24.54-24.54-24.54zm-126.86 0.35455c-13.359 0-24.186 10.827-24.186 24.186s10.827 24.186 24.186 24.186 24.186-10.827 24.186-24.186-10.827-24.186-24.186-24.186zm63.428 38.71c-3.6849 11.662-12.422 21.071-23.705 25.579l21.894 45.472v-30.061c-2.5959-0.87373-4.47-3.305-4.47-6.2048 0-3.5329 2.7858-6.382 6.2807-6.5466 3.4822 0.16462 6.2807 3.0137 6.2807 6.5466 0 2.8998-1.8868 5.331-4.4826 6.2048v30.061l21.894-45.472c-11.27-4.5079-20.02-13.916-23.692-25.579z" fill-rule="evenodd" stroke="#000" stroke-width="0"/></svg>
